<svg width="158" height="158" viewBox="0 0 158 158" fill="none" xmlns="http://www.w3.org/2000/svg">
<path d="M124.143 0H33.8571C15.1906 0 0 15.1868 0 33.8571V124.143C0 142.813 15.1906 158 33.8571 158H124.143C142.809 158 158 142.813 158 124.143V33.8571C158 15.1868 142.809 0 124.143 0ZM116.619 86.5238V101.571V101.65H116.612C116.566 111.984 108.151 120.381 97.8095 120.381H95.9286C92.2156 120.381 88.6568 118.801 86.1627 116.047C83.6723 113.297 82.4572 109.584 82.8259 105.871C83.4955 99.2391 89.4844 94.0476 96.4665 94.0476H101.571C105.721 94.0476 109.095 90.6732 109.095 86.5238V49.676L63.9524 58.1402V97.8095V112.857C63.9524 123.229 55.5144 131.667 45.1429 131.667H43.2619C39.5489 131.667 35.9901 130.087 33.496 127.333C31.0056 124.583 29.7905 120.87 30.1592 117.157C30.8288 110.525 36.8178 105.333 43.7999 105.333H48.9048C53.0541 105.333 56.4286 101.959 56.4286 97.8095V42.7089C56.4286 39.0862 59.013 35.9751 62.5718 35.313L109.938 26.4349C111.589 26.1227 113.29 26.559 114.58 27.635C115.878 28.7109 116.619 30.2946 116.619 31.9762V86.5238Z" fill="#EF4444"/>
</svg>
